# xmcd
#
# Track frame offsets: 
#        150
#        19030
#        74107
#        177360
#        196230
#        200882
#
# Disc length: 3130 seconds
#
# Revision: 2
# Processed by: cddbd v1.5.2PL0 Copyright (c) Steve Scherf et al.
# Submitted via: ExactAudioCopy v1.1
#
DISCID=5a0c3806
DTITLE=村田秀勝 - DJCD 最遊記 第一巻 〜笑ってSO・CHIRO〜
DYEAR=2000
DGENRE=Radio
TTITLE0=関俊彦・保志総一朗・平田広明・石田彰 - TOP PAGE 〜メインタイトル
TTITLE1=関俊彦・保志総一朗・平田広明・石田彰 - 思い出のあの日々〜選ばれし者
TTITLE2=関俊彦・保志総一朗・平田広明・石田彰 - 運命の寿司〜厚底の襲撃〜総一朗大いなる果てに
TTITLE3=関俊彦・保志総一朗・平田広明・石田彰 - 終わらぬ旅
TTITLE4=関俊彦・保志総一朗・平田広明・石田彰 - いつわりのエンディング
TTITLE5=関俊彦・保志総一朗・平田広明・石田彰 - Bonus Track
EXTD=
EXTT0=
EXTT1=
EXTT2=
EXTT3=
EXTT4=
EXTT5=
PLAYORDER=
